<?xml version="1.0" encoding="UTF-8" standalone="no"?>
<svg width="512" height="512" viewBox="0 0 512 512" xmlns="http://www.w3.org/2000/svg">
  <rect width="512" height="512" rx="80" fill="#e53935"/>
  <g transform="translate(96, 96) scale(13.3)">
    <!-- Material Icons - home_work (家+工作場所圖示) -->
    <path fill="white" d="M1,11V21H11V11H1M3,19V13H9V19H3M21,3H13V9H21V3M19,7H15V5H19V7M21,11H13V21H21V11M19,19H15V13H19V19M11,3H3V9H11V3M9,7H5V5H9V7Z"/>
    <!-- Material Icons - filter_alt (過濾器圖示) -->
    <path fill="white" d="M 4.5,7 H 19.5 L 12,17 V 22 L 8,24 V 17 L 0.5,7 Z" transform="translate(35, 3) scale(0.6)" stroke="white" stroke-width="1"/>
  </g>
</svg>